<svg id="mermaid-diagram-1768488042998" width="100%" xmlns="http://www.w3.org/2000/svg" style="max-width: 2179.8916015625px;" viewBox="-8 -8 2179.8916015625 863.7999267578125" role="graphics-document document" aria-roledescription="flowchart-v2"><rect x="0" y="0" width="100%" height="808.0199718475342" fill="#222222"/><style>#mermaid-diagram-1768488042998{font-family:"trebuchet ms",verdana,arial,sans-serif;font-size:16px;fill:#ccc;}#mermaid-diagram-1768488042998 .error-icon{fill:#a44141;}#mermaid-diagram-1768488042998 .error-text{fill:#ddd;stroke:#ddd;}#mermaid-diagram-1768488042998 .edge-thickness-normal{stroke-width:2px;}#mermaid-diagram-1768488042998 .edge-thickness-thick{stroke-width:3.5px;}#mermaid-diagram-1768488042998 .edge-pattern-solid{stroke-dasharray:0;}#mermaid-diagram-1768488042998 .edge-pattern-dashed{stroke-dasharray:3;}#mermaid-diagram-1768488042998 .edge-pattern-dotted{stroke-dasharray:2;}#mermaid-diagram-1768488042998 .marker{fill:lightgrey;stroke:lightgrey;}#mermaid-diagram-1768488042998 .marker.cross{stroke:lightgrey;}#mermaid-diagram-1768488042998 svg{font-family:"trebuchet ms",verdana,arial,sans-serif;font-size:16px;}#mermaid-diagram-1768488042998 .label{font-family:"trebuchet ms",verdana,arial,sans-serif;color:#ccc;}#mermaid-diagram-1768488042998 .cluster-label text{fill:#F9FFFE;}#mermaid-diagram-1768488042998 .cluster-label span,#mermaid-diagram-1768488042998 p{color:#F9FFFE;}#mermaid-diagram-1768488042998 .label text,#mermaid-diagram-1768488042998 span,#mermaid-diagram-1768488042998 p{fill:#ccc;color:#ccc;}#mermaid-diagram-1768488042998 .node rect,#mermaid-diagram-1768488042998 .node circle,#mermaid-diagram-1768488042998 .node ellipse,#mermaid-diagram-1768488042998 .node polygon,#mermaid-diagram-1768488042998 .node path{fill:#1f2020;stroke:#81B1DB;stroke-width:1px;}#mermaid-diagram-1768488042998 .flowchart-label text{text-anchor:middle;}#mermaid-diagram-1768488042998 .node .katex path{fill:#000;stroke:#000;stroke-width:1px;}#mermaid-diagram-1768488042998 .node .label{text-align:center;}#mermaid-diagram-1768488042998 .node.clickable{cursor:pointer;}#mermaid-diagram-1768488042998 .arrowheadPath{fill:lightgrey;}#mermaid-diagram-1768488042998 .edgePath .path{stroke:lightgrey;stroke-width:2.0px;}#mermaid-diagram-1768488042998 .flowchart-link{stroke:lightgrey;fill:none;}#mermaid-diagram-1768488042998 .edgeLabel{background-color:hsl(0, 0%, 34.4117647059%);text-align:center;}#mermaid-diagram-1768488042998 .edgeLabel rect{opacity:0.5;background-color:hsl(0, 0%, 34.4117647059%);fill:hsl(0, 0%, 34.4117647059%);}#mermaid-diagram-1768488042998 .labelBkg{background-color:rgba(87.75, 87.75, 87.75, 0.5);}#mermaid-diagram-1768488042998 .cluster rect{fill:hsl(180, 1.5873015873%, 28.3529411765%);stroke:rgba(255, 255, 255, 0.25);stroke-width:1px;}#mermaid-diagram-1768488042998 .cluster text{fill:#F9FFFE;}#mermaid-diagram-1768488042998 .cluster span,#mermaid-diagram-1768488042998 p{color:#F9FFFE;}#mermaid-diagram-1768488042998 div.mermaidTooltip{position:absolute;text-align:center;max-width:200px;padding:2px;font-family:"trebuchet ms",verdana,arial,sans-serif;font-size:12px;background:hsl(20, 1.5873015873%, 12.3529411765%);border:1px solid rgba(255, 255, 255, 0.25);border-radius:2px;pointer-events:none;z-index:100;}#mermaid-diagram-1768488042998 .flowchartTitleText{text-anchor:middle;font-size:18px;fill:#ccc;}#mermaid-diagram-1768488042998 :root{--mermaid-font-family:"trebuchet ms",verdana,arial,sans-serif;}</style><g><marker id="mermaid-diagram-1768488042998_flowchart-pointEnd" class="marker flowchart" viewBox="0 0 10 10" refX="6" refY="5" markerUnits="userSpaceOnUse" markerWidth="12" markerHeight="12" orient="auto"><path d="M 0 0 L 10 5 L 0 10 z" class="arrowMarkerPath" style="stroke-width: 1; stroke-dasharray: 1, 0;"></path></marker><marker id="mermaid-diagram-1768488042998_flowchart-pointStart" class="marker flowchart" viewBox="0 0 10 10" refX="4.5" refY="5" markerUnits="userSpaceOnUse" markerWidth="12" markerHeight="12" orient="auto"><path d="M 0 5 L 10 10 L 10 0 z" class="arrowMarkerPath" style="stroke-width: 1; stroke-dasharray: 1, 0;"></path></marker><marker id="mermaid-diagram-1768488042998_flowchart-circleEnd" class="marker flowchart" viewBox="0 0 10 10" refX="11" refY="5" markerUnits="userSpaceOnUse" markerWidth="11" markerHeight="11" orient="auto"><circle cx="5" cy="5" r="5" class="arrowMarkerPath" style="stroke-width: 1; stroke-dasharray: 1, 0;"></circle></marker><marker id="mermaid-diagram-1768488042998_flowchart-circleStart" class="marker flowchart" viewBox="0 0 10 10" refX="-1" refY="5" markerUnits="userSpaceOnUse" markerWidth="11" markerHeight="11" orient="auto"><circle cx="5" cy="5" r="5" class="arrowMarkerPath" style="stroke-width: 1; stroke-dasharray: 1, 0;"></circle></marker><marker id="mermaid-diagram-1768488042998_flowchart-crossEnd" class="marker cross flowchart" viewBox="0 0 11 11" refX="12" refY="5.2" markerUnits="userSpaceOnUse" markerWidth="11" markerHeight="11" orient="auto"><path d="M 1,1 l 9,9 M 10,1 l -9,9" class="arrowMarkerPath" style="stroke-width: 2; stroke-dasharray: 1, 0;"></path></marker><marker id="mermaid-diagram-1768488042998_flowchart-crossStart" class="marker cross flowchart" viewBox="0 0 11 11" refX="-1" refY="5.2" markerUnits="userSpaceOnUse" markerWidth="11" markerHeight="11" orient="auto"><path d="M 1,1 l 9,9 M 10,1 l -9,9" class="arrowMarkerPath" style="stroke-width: 2; stroke-dasharray: 1, 0;"></path></marker><g class="root"><g class="clusters"><g class="cluster default flowchart-label" id="G5"><rect style="" rx="0" ry="0" x="1470.1756286621094" y="9.889998435974121" width="693.7159271240234" height="808.0199718475342"></rect><g class="cluster-label" transform="translate(1817.033592224121, 9.889998435974121)"><text style=""><tspan xml:space="preserve" dy="1em" x="0" class="row">Sampling to Decode to Save</tspan></text></g></g><g class="cluster default flowchart-label" id="G4"><rect style="" rx="0" ry="0" x="930.7256317138672" y="139.55999374389648" width="287.82000732421875" height="459.0099859237671"></rect><g class="cluster-label" transform="translate(1074.6356353759766, 139.55999374389648)"><text style=""><tspan xml:space="preserve" dy="1em" x="0" class="row">Step 4 - Prompt / Conditioning</tspan></text></g></g><g class="cluster default flowchart-label" id="G3"><rect style="" rx="0" ry="0" x="614.5756378173828" y="618.5699796676636" width="603.9700012207031" height="229.22998905181885"></rect><g class="cluster-label" transform="translate(916.5606384277344, 618.5699796676636)"><text style=""><tspan xml:space="preserve" dy="1em" x="0" class="row">Step 3 - Image Size / Latent</tspan></text></g></g><g class="cluster default flowchart-label" id="G2"><rect style="" rx="0" ry="0" x="298.4600067138672" y="159.55999374389648" width="266.1156311035156" height="578.5699796676636"></rect><g class="cluster-label" transform="translate(431.517822265625, 159.55999374389648)"><text style=""><tspan xml:space="preserve" dy="1em" x="0" class="row">Step 2 - Upload image for editing</tspan></text></g></g><g class="cluster default flowchart-label" id="G1b"><rect style="" rx="0" ry="0" x="614.5756378173828" y="229.4499921798706" width="266.1499938964844" height="229.33999061584473"></rect><g class="cluster-label" transform="translate(747.650634765625, 229.4499921798706)"><text style=""><tspan xml:space="preserve" dy="1em" x="0" class="row">Text Encoder &amp; VAE</tspan></text></g></g><g class="cluster default flowchart-label" id="G1"><rect style="" rx="0" ry="0" x="0" y="0" width="1218.545639038086" height="119.55999374389648"></rect><g class="cluster-label" transform="translate(609.272819519043, 0)"><text style=""><tspan xml:space="preserve" dy="1em" x="0" class="row">Step 1 - Load models</tspan></text></g></g></g><g class="edgePaths"><path d="M248.46,59.78L252.627,59.78C256.793,59.78,265.127,59.78,273.46,59.78C281.793,59.78,290.127,59.78,297.577,59.78C305.027,59.78,311.593,59.78,314.877,59.78L318.16,59.78" id="L-A1-A2-0" class=" edge-thickness-normal edge-pattern-solid flowchart-link LS-A1 LE-A2" style="fill:none;" marker-end="url(#mermaid-diagram-1768488042998_flowchart-pointEnd)"></path><path d="M539.576,59.78L543.742,59.78C547.909,59.78,556.242,59.78,564.576,59.78C572.909,59.78,581.242,59.78,589.576,59.78C597.909,59.78,606.242,59.78,615.958,59.78C625.675,59.78,636.774,59.78,642.323,59.78L647.873,59.78" id="L-A2-A3-0" class=" edge-thickness-normal edge-pattern-solid flowchart-link LS-A2 LE-A3" style="fill:none;" marker-end="url(#mermaid-diagram-1768488042998_flowchart-pointEnd)"></path><path d="M842.129,59.78L848.562,59.78C854.994,59.78,867.86,59.78,878.459,59.78C889.059,59.78,897.392,59.78,905.726,59.78C914.059,59.78,922.392,59.78,942.82,59.78C963.247,59.78,995.769,59.78,1012.03,59.78L1028.291,59.78" id="L-A3-A4-0" class=" edge-thickness-normal edge-pattern-solid flowchart-link LS-A3 LE-A4" style="fill:none;" marker-end="url(#mermaid-diagram-1768488042998_flowchart-pointEnd)"></path><path d="M855.726,283.097L859.892,282.471C864.059,281.845,872.392,280.592,880.726,264.985C889.059,249.377,897.392,219.413,905.726,204.432C914.059,189.45,922.392,189.45,943.868,201.465C965.344,213.479,999.963,237.509,1017.272,249.523L1034.582,261.538" id="L-B1-E1-0" class=" edge-thickness-normal edge-pattern-solid flowchart-link LS-B1 LE-E1" style="fill:none;" marker-end="url(#mermaid-diagram-1768488042998_flowchart-pointEnd)"></path><path d="M802.813,374.12L815.798,368.287C828.784,362.453,854.755,350.787,871.907,323.342C889.059,295.897,897.392,252.673,905.726,231.062C914.059,209.45,922.392,209.45,942.332,218.206C962.272,226.963,993.818,244.475,1009.591,253.231L1025.364,261.988" id="L-B2-E1-0" class=" edge-thickness-normal edge-pattern-solid flowchart-link LS-B2 LE-E1" style="fill:none;" marker-end="url(#mermaid-diagram-1768488042998_flowchart-pointEnd)"></path><path d="M802.813,324.12L815.798,329.953C828.784,335.787,854.755,347.453,871.907,363.268C889.059,379.083,897.392,399.047,905.726,409.028C914.059,419.01,922.392,419.01,942.332,427.766C962.272,436.523,993.818,454.035,1009.591,462.791L1025.364,471.548" id="L-B1-E2-0" class=" edge-thickness-normal edge-pattern-solid flowchart-link LS-B1 LE-E2" style="fill:none;" marker-end="url(#mermaid-diagram-1768488042998_flowchart-pointEnd)"></path><path d="M816.791,409.291L827.447,410.893C838.102,412.494,859.414,415.697,874.236,420.65C889.059,425.603,897.392,432.307,905.726,435.658C914.059,439.01,922.392,439.01,939.804,444.522C957.217,450.035,983.708,461.059,996.953,466.571L1010.198,472.084" id="L-B2-E2-0" class=" edge-thickness-normal edge-pattern-solid flowchart-link LS-B2 LE-E2" style="fill:none;" marker-end="url(#mermaid-diagram-1768488042998_flowchart-pointEnd)"></path><path d="M488.273,678.35L500.99,678.35C513.707,678.35,539.141,678.35,556.025,678.35C572.909,678.35,581.242,678.35,589.576,678.35C597.909,678.35,606.242,678.35,616.098,678.35C625.954,678.35,637.332,678.35,643.021,678.35L648.711,678.35" id="L-C1-D1-0" class=" edge-thickness-normal edge-pattern-solid flowchart-link LS-C1 LE-D1" style="fill:none;" marker-end="url(#mermaid-diagram-1768488042998_flowchart-pointEnd)"></path><path d="M456.902,314.56L474.848,297.042C492.793,279.523,528.684,244.487,550.797,226.968C572.909,209.45,581.242,209.45,589.576,209.45C597.909,209.45,606.242,209.45,632.588,209.45C658.934,209.45,703.292,209.45,747.651,209.45C792.009,209.45,836.367,209.45,862.713,212.783C889.059,216.117,897.392,222.783,905.726,226.117C914.059,229.45,922.392,229.45,939.804,234.962C957.217,240.475,983.708,251.499,996.953,257.011L1010.198,262.524" id="L-C2-E1-0" class=" edge-thickness-normal edge-pattern-solid flowchart-link LS-C2 LE-E1" style="fill:none;" marker-end="url(#mermaid-diagram-1768488042998_flowchart-pointEnd)"></path><path d="M449.892,364.12L469.006,389.898C488.12,415.677,526.348,467.233,549.628,493.012C572.909,518.79,581.242,518.79,589.576,518.79C597.909,518.79,606.242,518.79,632.588,518.79C658.934,518.79,703.292,518.79,747.651,518.79C792.009,518.79,836.367,518.79,862.713,518.79C889.059,518.79,897.392,518.79,905.726,518.79C914.059,518.79,922.392,518.79,929.851,518.335C937.309,517.88,943.892,516.97,947.184,516.515L950.476,516.06" id="L-C2-E2-0" class=" edge-thickness-normal edge-pattern-solid flowchart-link LS-C2 LE-E2" style="fill:none;" marker-end="url(#mermaid-diagram-1768488042998_flowchart-pointEnd)"></path><path d="M488.273,501.728L500.99,497.905C513.707,494.082,539.141,486.436,556.025,482.613C572.909,478.79,581.242,478.79,589.576,478.79C597.909,478.79,606.242,478.79,632.588,478.79C658.934,478.79,703.292,478.79,747.651,478.79C792.009,478.79,836.367,478.79,862.713,465.493C889.059,452.197,897.392,425.603,905.726,412.307C914.059,399.01,922.392,399.01,944.422,385.397C966.452,371.784,1002.178,344.558,1020.041,330.945L1037.904,317.332" id="L-C3-E1-0" class=" edge-thickness-normal edge-pattern-solid flowchart-link LS-C3 LE-E1" style="fill:none;" marker-end="url(#mermaid-diagram-1768488042998_flowchart-pointEnd)"></path><path d="M486.673,543.57L499.657,549.403C512.641,555.237,538.608,566.903,555.759,572.737C572.909,578.57,581.242,578.57,589.576,578.57C597.909,578.57,606.242,578.57,632.588,578.57C658.934,578.57,703.292,578.57,747.651,578.57C792.009,578.57,836.367,578.57,862.713,578.57C889.059,578.57,897.392,578.57,905.726,578.57C914.059,578.57,922.392,578.57,942.311,569.849C962.23,561.129,993.734,543.688,1009.486,534.967L1025.238,526.247" id="L-C3-E2-0" class=" edge-thickness-normal edge-pattern-solid flowchart-link LS-C3 LE-E2" style="fill:none;" marker-end="url(#mermaid-diagram-1768488042998_flowchart-pointEnd)"></path><path d="M841.291,685.464L847.863,685.963C854.436,686.463,867.581,687.461,878.32,687.961C889.059,688.46,897.392,688.46,905.726,688.46C914.059,688.46,922.392,688.46,930.299,688.46C938.206,688.46,945.686,688.46,949.427,688.46L953.167,688.46" id="L-D1-D2-0" class=" edge-thickness-normal edge-pattern-solid flowchart-link LS-D1 LE-D2" style="fill:none;" marker-end="url(#mermaid-diagram-1768488042998_flowchart-pointEnd)"></path><path d="M841.291,657.317L847.863,655.841C854.436,654.365,867.581,651.412,878.32,649.936C889.059,648.46,897.392,648.46,905.726,648.46C914.059,648.46,922.392,648.46,948.56,593.557C974.728,538.653,1018.731,428.846,1040.733,373.943L1062.734,319.04" id="L-D1-E1-0" class=" edge-thickness-normal edge-pattern-solid flowchart-link LS-D1 LE-E1" style="fill:none;" marker-end="url(#mermaid-diagram-1768488042998_flowchart-pointEnd)"></path><path d="M841.291,671.391L847.863,670.902C854.436,670.414,867.581,669.437,878.32,668.948C889.059,668.46,897.392,668.46,905.726,668.46C914.059,668.46,922.392,668.46,946.467,645.003C970.542,621.547,1010.358,574.634,1030.266,551.177L1050.175,527.721" id="L-D1-E2-0" class=" edge-thickness-normal edge-pattern-solid flowchart-link LS-D1 LE-E2" style="fill:none;" marker-end="url(#mermaid-diagram-1768488042998_flowchart-pointEnd)"></path><path d="M1115.681,59.78L1132.825,59.78C1149.969,59.78,1184.257,59.78,1222.371,59.78C1260.484,59.78,1302.422,59.78,1344.361,59.78C1386.299,59.78,1428.237,59.78,1478.578,131.334C1528.919,202.889,1587.662,345.998,1617.033,417.552L1646.405,489.107" id="L-A4-F1-0" class=" edge-thickness-normal edge-pattern-solid flowchart-link LS-A4 LE-F1" style="fill:none;" marker-end="url(#mermaid-diagram-1768488042998_flowchart-pointEnd)"></path><path d="M1193.546,289.34L1197.712,289.34C1201.879,289.34,1210.212,289.34,1235.348,289.34C1260.484,289.34,1302.422,289.34,1344.361,289.34C1386.299,289.34,1428.237,289.34,1476.657,322.769C1525.076,356.198,1579.977,423.056,1607.427,456.485L1634.878,489.914" id="L-E1-F1-0" class=" edge-thickness-normal edge-pattern-solid flowchart-link LS-E1 LE-F1" style="fill:none;" marker-end="url(#mermaid-diagram-1768488042998_flowchart-pointEnd)"></path><path d="M1193.546,498.9L1197.712,498.9C1201.879,498.9,1210.212,498.9,1235.348,498.9C1260.484,498.9,1302.422,498.9,1344.361,498.9C1386.299,498.9,1428.237,498.9,1452.495,499.247C1476.752,499.594,1483.328,500.288,1486.617,500.636L1489.905,500.983" id="L-E2-F1-0" class=" edge-thickness-normal edge-pattern-solid flowchart-link LS-E2 LE-F1" style="fill:none;" marker-end="url(#mermaid-diagram-1768488042998_flowchart-pointEnd)"></path><path d="M1190.804,688.46L1195.428,688.46C1200.051,688.46,1209.299,688.46,1234.891,688.46C1260.484,688.46,1302.422,688.46,1344.361,688.46C1386.299,688.46,1428.237,688.46,1475.366,664.903C1522.495,641.346,1574.814,594.231,1600.974,570.674L1627.133,547.117" id="L-D2-F1-0" class=" edge-thickness-normal edge-pattern-solid flowchart-link LS-D2 LE-F1" style="fill:none;" marker-end="url(#mermaid-diagram-1768488042998_flowchart-pointEnd)"></path><path d="M1184.873,788.02L1190.485,788.02C1196.098,788.02,1207.322,788.02,1233.903,788.02C1260.484,788.02,1302.422,788.02,1344.361,788.02C1386.299,788.02,1428.237,788.02,1477.212,748.002C1526.187,707.984,1582.198,627.948,1610.203,587.93L1638.209,547.912" id="L-D3-F1-0" class=" edge-thickness-normal edge-pattern-dotted flowchart-link LS-D3 LE-F1" style="fill:none;stroke-width:2px;stroke-dasharray:3;" marker-end="url(#mermaid-diagram-1768488042998_flowchart-pointEnd)"></path><path d="M1822.003,518.79L1826.169,518.79C1830.336,518.79,1838.669,518.79,1846.119,518.79C1853.569,518.79,1860.136,518.79,1863.419,518.79L1866.703,518.79" id="L-F1-F2-0" class=" edge-thickness-normal edge-pattern-solid flowchart-link LS-F1 LE-F2" style="fill:none;" marker-end="url(#mermaid-diagram-1768488042998_flowchart-pointEnd)"></path><path d="M1998.096,518.79L2002.262,518.79C2006.429,518.79,2014.762,518.79,2022.212,518.79C2029.662,518.79,2036.229,518.79,2039.512,518.79L2042.796,518.79" id="L-F2-F3-0" class=" edge-thickness-normal edge-pattern-solid flowchart-link LS-F2 LE-F3" style="fill:none;" marker-end="url(#mermaid-diagram-1768488042998_flowchart-pointEnd)"></path></g><g class="edgeLabels"><g class="edgeLabel"><g class="label" transform="translate(0, 0)"><rect rx="0" ry="0" width="0" height="0"></rect><text style=""><tspan xml:space="preserve" dy="1em" x="0" class="row"></tspan></text></g></g><g class="edgeLabel"><g class="label" transform="translate(0, 0)"><rect rx="0" ry="0" width="0" height="0"></rect><text style=""><tspan xml:space="preserve" dy="1em" x="0" class="row"></tspan></text></g></g><g class="edgeLabel"><g class="label" transform="translate(0, 0)"><rect rx="0" ry="0" width="0" height="0"></rect><text style=""><tspan xml:space="preserve" dy="1em" x="0" class="row"></tspan></text></g></g><g class="edgeLabel"><g class="label" transform="translate(0, 0)"><rect rx="0" ry="0" width="0" height="0"></rect><text style=""><tspan xml:space="preserve" dy="1em" x="0" class="row"></tspan></text></g></g><g class="edgeLabel"><g class="label" transform="translate(0, 0)"><rect rx="0" ry="0" width="0" height="0"></rect><text style=""><tspan xml:space="preserve" dy="1em" x="0" class="row"></tspan></text></g></g><g class="edgeLabel"><g class="label" transform="translate(0, 0)"><rect rx="0" ry="0" width="0" height="0"></rect><text style=""><tspan xml:space="preserve" dy="1em" x="0" class="row"></tspan></text></g></g><g class="edgeLabel"><g class="label" transform="translate(0, 0)"><rect rx="0" ry="0" width="0" height="0"></rect><text style=""><tspan xml:space="preserve" dy="1em" x="0" class="row"></tspan></text></g></g><g class="edgeLabel"><g class="label" transform="translate(0, 0)"><rect rx="0" ry="0" width="0" height="0"></rect><text style=""><tspan xml:space="preserve" dy="1em" x="0" class="row"></tspan></text></g></g><g class="edgeLabel"><g class="label" transform="translate(0, 0)"><rect rx="0" ry="0" width="0" height="0"></rect><text style=""><tspan xml:space="preserve" dy="1em" x="0" class="row"></tspan></text></g></g><g class="edgeLabel"><g class="label" transform="translate(0, 0)"><rect rx="0" ry="0" width="0" height="0"></rect><text style=""><tspan xml:space="preserve" dy="1em" x="0" class="row"></tspan></text></g></g><g class="edgeLabel"><g class="label" transform="translate(0, 0)"><rect rx="0" ry="0" width="0" height="0"></rect><text style=""><tspan xml:space="preserve" dy="1em" x="0" class="row"></tspan></text></g></g><g class="edgeLabel"><g class="label" transform="translate(0, 0)"><rect rx="0" ry="0" width="0" height="0"></rect><text style=""><tspan xml:space="preserve" dy="1em" x="0" class="row"></tspan></text></g></g><g class="edgeLabel"><g class="label" transform="translate(0, 0)"><rect rx="0" ry="0" width="0" height="0"></rect><text style=""><tspan xml:space="preserve" dy="1em" x="0" class="row"></tspan></text></g></g><g class="edgeLabel"><g class="label" transform="translate(0, 0)"><rect rx="0" ry="0" width="0" height="0"></rect><text style=""><tspan xml:space="preserve" dy="1em" x="0" class="row"></tspan></text></g></g><g class="edgeLabel"><g class="label" transform="translate(0, 0)"><rect rx="0" ry="0" width="0" height="0"></rect><text style=""><tspan xml:space="preserve" dy="1em" x="0" class="row"></tspan></text></g></g><g class="edgeLabel"><g class="label" transform="translate(0, 0)"><rect rx="0" ry="0" width="0" height="0"></rect><text style=""><tspan xml:space="preserve" dy="1em" x="0" class="row"></tspan></text></g></g><g class="edgeLabel" transform="translate(1344.3606338500977, 289.3399906158447)"><g class="label" transform="translate(-63.00343704223633, -9.279999732971191)"><rect rx="0" ry="0" width="126.23710632324219" height="18.608232498168945"></rect><text style=""><tspan xml:space="preserve" dy="1em" x="0" class="row">positive/negative</tspan></text></g></g><g class="edgeLabel" transform="translate(1344.3606338500977, 498.8999843597412)"><g class="label" transform="translate(-100.81499481201172, -9.279999732971191)"><rect rx="0" ry="0" width="201.43411254882812" height="18.608232498168945"></rect><text style=""><tspan xml:space="preserve" dy="1em" x="0" class="row">(alternative prompt branch)</tspan></text></g></g><g class="edgeLabel"><g class="label" transform="translate(0, 0)"><rect rx="0" ry="0" width="0" height="0"></rect><text style=""><tspan xml:space="preserve" dy="1em" x="0" class="row"></tspan></text></g></g><g class="edgeLabel" transform="translate(1344.3606338500977, 788.0199718475342)"><g class="label" transform="translate(-29.42999839782715, -9.279999732971191)"><rect rx="0" ry="0" width="59.67045593261719" height="18.608232498168945"></rect><text style=""><tspan xml:space="preserve" dy="1em" x="0" class="row">optional</tspan></text></g></g><g class="edgeLabel"><g class="label" transform="translate(0, 0)"><rect rx="0" ry="0" width="0" height="0"></rect><text style=""><tspan xml:space="preserve" dy="1em" x="0" class="row"></tspan></text></g></g><g class="edgeLabel"><g class="label" transform="translate(0, 0)"><rect rx="0" ry="0" width="0" height="0"></rect><text style=""><tspan xml:space="preserve" dy="1em" x="0" class="row"></tspan></text></g></g></g><g class="nodes"><g class="node default default flowchart-label" id="flowchart-F1-18" data-node="true" data-id="F1" transform="translate(1658.5892181396484, 518.7899827957153)"><rect class="basic label-container" style="" rx="0" ry="0" x="-163.41358947753906" y="-24.779998779296875" width="326.8271789550781" height="49.55999755859375"></rect><g class="label" style="" transform="translate(0, -17.279998779296875)"><rect></rect><text style=""><tspan xml:space="preserve" dy="1em" x="0" class="row">KSampler</tspan><tspan xml:space="preserve" dy="1em" x="0" class="row">steps / cfg / sampler / scheduler / denoise</tspan></text></g></g><g class="node default default flowchart-label" id="flowchart-F2-19" data-node="true" data-id="F2" transform="translate(1935.0492134094238, 518.7899827957153)"><rect class="basic label-container" style="" rx="0" ry="0" x="-63.04640579223633" y="-24.779998779296875" width="126.09281158447266" height="49.55999755859375"></rect><g class="label" style="" transform="translate(0, -17.279998779296875)"><rect></rect><text style=""><tspan xml:space="preserve" dy="1em" x="0" class="row">VAEDecode</tspan><tspan xml:space="preserve" dy="1em" x="0" class="row">latent to image</tspan></text></g></g><g class="node default default flowchart-label" id="flowchart-F3-20" data-node="true" data-id="F3" transform="translate(2093.4935874938965, 518.7899827957153)"><rect class="basic label-container" style="" rx="0" ry="0" x="-45.39796829223633" y="-16.77999973297119" width="90.79593658447266" height="33.55999946594238"></rect><g class="label" style="" transform="translate(0, -9.279999732971191)"><rect></rect><text style=""><tspan xml:space="preserve" dy="1em" x="0" class="row">SaveImage</tspan></text></g></g><g class="node default default flowchart-label" id="flowchart-E1-16" data-node="true" data-id="E1" transform="translate(1074.6356353759766, 289.3399906158447)"><rect class="basic label-container" style="" rx="0" ry="0" x="-118.90999603271484" y="-24.779998779296875" width="237.8199920654297" height="49.55999755859375"></rect><g class="label" style="" transform="translate(0, -17.279998779296875)"><rect></rect><text style=""><tspan xml:space="preserve" dy="1em" x="0" class="row">TextEncodeQwenImageEditPlus</tspan><tspan xml:space="preserve" dy="1em" x="0" class="row">POSITIVE prompt + images</tspan></text></g></g><g class="node default default flowchart-label" id="flowchart-E2-17" data-node="true" data-id="E2" transform="translate(1074.6356353759766, 498.8999843597412)"><rect class="basic label-container" style="" rx="0" ry="0" x="-118.90999603271484" y="-24.779998779296875" width="237.8199920654297" height="49.55999755859375"></rect><g class="label" style="" transform="translate(0, -17.279998779296875)"><rect></rect><text style=""><tspan xml:space="preserve" dy="1em" x="0" class="row">TextEncodeQwenImageEditPlus</tspan><tspan xml:space="preserve" dy="1em" x="0" class="row">ALT prompt branch</tspan></text></g></g><g class="node default default flowchart-label" id="flowchart-D1-13" data-node="true" data-id="D1" transform="translate(747.650634765625, 678.3499765396118)"><rect class="basic label-container" style="" rx="0" ry="0" x="-93.63999938964844" y="-24.779998779296875" width="187.27999877929688" height="49.55999755859375"></rect><g class="label" style="" transform="translate(0, -17.279998779296875)"><rect></rect><text style=""><tspan xml:space="preserve" dy="1em" x="0" class="row">ImageScaleToTotalPixels</tspan><tspan xml:space="preserve" dy="1em" x="0" class="row">avoid oversized inputs</tspan></text></g></g><g class="node default default flowchart-label" id="flowchart-D2-14" data-node="true" data-id="D2" transform="translate(1074.6356353759766, 688.4599781036377)"><rect class="basic label-container" style="" rx="0" ry="0" x="-116.16874694824219" y="-24.779998779296875" width="232.33749389648438" height="49.55999755859375"></rect><g class="label" style="" transform="translate(0, -17.279998779296875)"><rect></rect><text style=""><tspan xml:space="preserve" dy="1em" x="0" class="row">VAEEncode</tspan><tspan xml:space="preserve" dy="1em" x="0" class="row">encode scaled image to latent</tspan></text></g></g><g class="node default default flowchart-label" id="flowchart-D3-15" data-node="true" data-id="D3" transform="translate(1074.6356353759766, 788.0199718475342)"><rect class="basic label-container" style="" rx="0" ry="0" x="-110.23780822753906" y="-24.779998779296875" width="220.47561645507812" height="49.55999755859375"></rect><g class="label" style="" transform="translate(0, -17.279998779296875)"><rect></rect><text style=""><tspan xml:space="preserve" dy="1em" x="0" class="row">EmptySD3LatentImage</tspan><tspan xml:space="preserve" dy="1em" x="0" class="row">optional: replace VAEEncode</tspan></text></g></g><g class="node default default flowchart-label" id="flowchart-C1-10" data-node="true" data-id="C1" transform="translate(431.517822265625, 678.3499765396118)"><rect class="basic label-container" style="" rx="0" ry="0" x="-56.75499725341797" y="-24.779998779296875" width="113.50999450683594" height="49.55999755859375"></rect><g class="label" style="" transform="translate(0, -17.279998779296875)"><rect></rect><text style=""><tspan xml:space="preserve" dy="1em" x="0" class="row">LoadImage #1</tspan><tspan xml:space="preserve" dy="1em" x="0" class="row">dark portrait</tspan></text></g></g><g class="node default default flowchart-label" id="flowchart-C2-11" data-node="true" data-id="C2" transform="translate(431.517822265625, 339.3399906158447)"><rect class="basic label-container" style="" rx="0" ry="0" x="-56.75499725341797" y="-24.779998779296875" width="113.50999450683594" height="49.55999755859375"></rect><g class="label" style="" transform="translate(0, -17.279998779296875)"><rect></rect><text style=""><tspan xml:space="preserve" dy="1em" x="0" class="row">LoadImage #2</tspan><tspan xml:space="preserve" dy="1em" x="0" class="row">optional ref</tspan></text></g></g><g class="node default default flowchart-label" id="flowchart-C3-12" data-node="true" data-id="C3" transform="translate(431.517822265625, 518.7899827957153)"><rect class="basic label-container" style="" rx="0" ry="0" x="-56.75499725341797" y="-24.779998779296875" width="113.50999450683594" height="49.55999755859375"></rect><g class="label" style="" transform="translate(0, -17.279998779296875)"><rect></rect><text style=""><tspan xml:space="preserve" dy="1em" x="0" class="row">LoadImage #3</tspan><tspan xml:space="preserve" dy="1em" x="0" class="row">optional ref</tspan></text></g></g><g class="node default default flowchart-label" id="flowchart-B1-8" data-node="true" data-id="B1" transform="translate(747.650634765625, 299.3399906158447)"><rect class="basic label-container" style="" rx="0" ry="0" x="-108.07499694824219" y="-24.779998779296875" width="216.14999389648438" height="49.55999755859375"></rect><g class="label" style="" transform="translate(0, -17.279998779296875)"><rect></rect><text style=""><tspan xml:space="preserve" dy="1em" x="0" class="row">CLIPLoader</tspan><tspan xml:space="preserve" dy="1em" x="0" class="row">qwen_2.5_vl_7b_fp8_scaled</tspan></text></g></g><g class="node default default flowchart-label" id="flowchart-B2-9" data-node="true" data-id="B2" transform="translate(747.650634765625, 398.8999843597412)"><rect class="basic label-container" style="" rx="0" ry="0" x="-69.14015579223633" y="-24.779998779296875" width="138.28031158447266" height="49.55999755859375"></rect><g class="label" style="" transform="translate(0, -17.279998779296875)"><rect></rect><text style=""><tspan xml:space="preserve" dy="1em" x="0" class="row">VAELoader</tspan><tspan xml:space="preserve" dy="1em" x="0" class="row">qwen_image_vae</tspan></text></g></g><g class="node default default flowchart-label" id="flowchart-A1-0" data-node="true" data-id="A1" transform="translate(136.7300033569336, 59.77999687194824)"><rect class="basic label-container" style="" rx="0" ry="0" x="-111.72999572753906" y="-24.779998779296875" width="223.45999145507812" height="49.55999755859375"></rect><g class="label" style="" transform="translate(0, -17.279998779296875)"><rect></rect><text style=""><tspan xml:space="preserve" dy="1em" x="0" class="row">UnetLoaderGGUF</tspan><tspan xml:space="preserve" dy="1em" x="0" class="row">Qwen-Image-Edit-2509 GGUF</tspan></text></g></g><g class="node default default flowchart-label" id="flowchart-A2-1" data-node="true" data-id="A2" transform="translate(431.517822265625, 59.77999687194824)"><rect class="basic label-container" style="" rx="0" ry="0" x="-108.05780792236328" y="-24.779998779296875" width="216.11561584472656" height="49.55999755859375"></rect><g class="label" style="" transform="translate(0, -17.279998779296875)"><rect></rect><text style=""><tspan xml:space="preserve" dy="1em" x="0" class="row">LoraLoaderModelOnly</tspan><tspan xml:space="preserve" dy="1em" x="0" class="row">Qwen-Image-Lightning LoRA</tspan></text></g></g><g class="node default default flowchart-label" id="flowchart-A3-2" data-node="true" data-id="A3" transform="translate(747.650634765625, 59.77999687194824)"><rect class="basic label-container" style="" rx="0" ry="0" x="-94.4781265258789" y="-16.77999973297119" width="188.9562530517578" height="33.55999946594238"></rect><g class="label" style="" transform="translate(0, -9.279999732971191)"><rect></rect><text style=""><tspan xml:space="preserve" dy="1em" x="0" class="row">ModelSamplingAuraFlow</tspan></text></g></g><g class="node default default flowchart-label" id="flowchart-A4-3" data-node="true" data-id="A4" transform="translate(1074.6356353759766, 59.77999687194824)"><rect class="basic label-container" style="" rx="0" ry="0" x="-41.04499816894531" y="-16.77999973297119" width="82.08999633789062" height="33.55999946594238"></rect><g class="label" style="" transform="translate(0, -9.279999732971191)"><rect></rect><text style=""><tspan xml:space="preserve" dy="1em" x="0" class="row">CFGNorm</tspan></text></g></g></g></g></g></svg>